HIERARCHY
ROOT Hips
{
    OFFSET   0.000000   0.000000   0.000000
    CHANNELS 6 Xposition Yposition Zposition Zrotation Xrotation Yrotation
    JOINT Chest
    {
        OFFSET   0.000000   8.007230   0.000000
        CHANNELS 3 Zrotation Xrotation Yrotation
        JOINT Chest2
        {
            OFFSET   0.000000  22.077100   0.000000
            CHANNELS 3 Zrotation Xrotation Yrotation
            JOINT Neck
            {
                OFFSET   0.000000  23.254700   0.000000
                CHANNELS 3 Zrotation Xrotation Yrotation
                JOINT Head
                {
                    OFFSET   0.000010  14.370000   1.956610
                    CHANNELS 3 Zrotation Xrotation Yrotation
                    End Site
                    {
                        OFFSET   0.000000  19.566000   0.000000
                    }
                }
            }
            JOINT LeftCollar
            {
                OFFSET   3.911900  19.017000  -0.467063
                CHANNELS 3 Zrotation Xrotation Yrotation
                JOINT LeftShoulder
                {
                    OFFSET  10.383700   0.000000   0.000000
                    CHANNELS 3 Zrotation Xrotation Yrotation
                    JOINT LeftElbow
                    {
                        OFFSET  26.662100   0.001671   0.000522
                        CHANNELS 3 Zrotation Xrotation Yrotation
                        JOINT LeftWrist
                        {
                            OFFSET  28.869000   0.000037  -0.000114
                            CHANNELS 3 Zrotation Xrotation Yrotation
                            JOINT LeftFinger0
                            {
                                OFFSET   2.044650  -2.323450   3.252850
                                CHANNELS 3 Zrotation Xrotation Yrotation
                                JOINT LeftFinger01
                                {
                                    OFFSET   3.088140   0.000000   0.000000
                                    CHANNELS 3 Zrotation Xrotation Yrotation
                                    JOINT LeftFinger02
                                    {
                                        OFFSET   2.639460   0.000000   0.000000
                                        CHANNELS 3 Zrotation Xrotation Yrotation
                                        End Site
                                        {
                                            OFFSET   2.582190   0.000000   0.000000
                                        }
                                    }
                                }
                            }
                            JOINT LeftFinger1
                            {
                                OFFSET   8.364480   0.000000   3.252850
                                CHANNELS 3 Zrotation Xrotation Yrotation
                                JOINT LeftFinger11
                                {
                                    OFFSET   4.646930   0.000000   0.000000
                                    CHANNELS 3 Zrotation Xrotation Yrotation
                                    JOINT LeftFinger12
                                    {
                                        OFFSET   2.323470   0.000000   0.000000
                                        CHANNELS 3 Zrotation Xrotation Yrotation
                                        End Site
                                        {
                                            OFFSET   2.273050   0.000000   0.000000
                                        }
                                    }
                                }
                            }
                            JOINT LeftFinger2
                            {
                                OFFSET   8.364490   0.000016   1.078090
                                CHANNELS 3 Zrotation Xrotation Yrotation
                                JOINT LeftFinger21
                                {
                                    OFFSET   5.111620   0.000000   0.000000
                                    CHANNELS 3 Zrotation Xrotation Yrotation
                                    JOINT LeftFinger22
                                    {
                                        OFFSET   2.788150   0.000013   0.000000
                                        CHANNELS 3 Zrotation Xrotation Yrotation
                                        End Site
                                        {
                                            OFFSET   2.727660   0.000000   0.000000
                                        }
                                    }
                                }
                            }
                            JOINT LeftFinger3
                            {
                                OFFSET   7.899780   0.000016  -1.078090
                                CHANNELS 3 Zrotation Xrotation Yrotation
                                JOINT LeftFinger31
                                {
                                    OFFSET   4.646930   0.000000   0.000000
                                    CHANNELS 3 Zrotation Xrotation Yrotation
                                    JOINT LeftFinger32
                                    {
                                        OFFSET   2.323470   0.000000   0.000000
                                        CHANNELS 3 Zrotation Xrotation Yrotation
                                        End Site
                                        {
                                            OFFSET   2.273050   0.000000   0.000000
                                        }
                                    }
                                }
                            }
                            JOINT LeftFinger4
                            {
                                OFFSET   7.435080   0.000000  -3.252850
                                CHANNELS 3 Zrotation Xrotation Yrotation
                                JOINT LeftFinger41
                                {
                                    OFFSET   3.717550   0.000000   0.000000
                                    CHANNELS 3 Zrotation Xrotation Yrotation
                                    JOINT LeftFinger42
                                    {
                                        OFFSET   1.858760   0.000000   0.000000
                                        CHANNELS 3 Zrotation Xrotation Yrotation
                                        End Site
                                        {
                                            OFFSET   1.818440   0.000000   0.000000
                                        }
                                    }
                                }
                            }
                        }
                    }
                }
            }
            JOINT RightCollar
            {
                OFFSET  -3.911900  19.017000  -0.467064
                CHANNELS 3 Zrotation Xrotation Yrotation
                JOINT RightShoulder
                {
                    OFFSET -10.383700   0.000000   0.000000
                    CHANNELS 3 Zrotation Xrotation Yrotation
                    JOINT RightElbow
                    {
                        OFFSET -26.662100   0.001633   0.000260
                        CHANNELS 3 Zrotation Xrotation Yrotation
                        JOINT RightWrist
                        {
                            OFFSET -28.869000  -0.000045  -0.000080
                            CHANNELS 3 Zrotation Xrotation Yrotation
                            JOINT RightFinger0
                            {
                                OFFSET  -2.044660  -2.323490   3.252850
                                CHANNELS 3 Zrotation Xrotation Yrotation
                                JOINT RightFinger01
                                {
                                    OFFSET  -3.088140   0.000000   0.000000
                                    CHANNELS 3 Zrotation Xrotation Yrotation
                                    JOINT RightFinger02
                                    {
                                        OFFSET  -2.639450   0.000000   0.000000
                                        CHANNELS 3 Zrotation Xrotation Yrotation
                                        End Site
                                        {
                                            OFFSET  -2.582190   0.000000   0.000000
                                        }
                                    }
                                }
                            }
                            JOINT RightFinger1
                            {
                                OFFSET  -8.364480   0.000000   3.252850
                                CHANNELS 3 Zrotation Xrotation Yrotation
                                JOINT RightFinger11
                                {
                                    OFFSET  -4.646920   0.000000   0.000000
                                    CHANNELS 3 Zrotation Xrotation Yrotation
                                    JOINT RightFinger12
                                    {
                                        OFFSET  -2.323470   0.000000   0.000000
                                        CHANNELS 3 Zrotation Xrotation Yrotation
                                        End Site
                                        {
                                            OFFSET  -2.273050   0.000000   0.000000
                                        }
                                    }
                                }
                            }
                            JOINT RightFinger2
                            {
                                OFFSET  -8.364480   0.000000   1.078090
                                CHANNELS 3 Zrotation Xrotation Yrotation
                                JOINT RightFinger21
                                {
                                    OFFSET  -5.111610   0.000000   0.000000
                                    CHANNELS 3 Zrotation Xrotation Yrotation
                                    JOINT RightFinger22
                                    {
                                        OFFSET  -2.788160   0.000000   0.000000
                                        CHANNELS 3 Zrotation Xrotation Yrotation
                                        End Site
                                        {
                                            OFFSET  -2.727660   0.000000   0.000000
                                        }
                                    }
                                }
                            }
                            JOINT RightFinger3
                            {
                                OFFSET  -7.899780   0.000000  -1.078090
                                CHANNELS 3 Zrotation Xrotation Yrotation
                                JOINT RightFinger31
                                {
                                    OFFSET  -4.646930   0.000000   0.000000
                                    CHANNELS 3 Zrotation Xrotation Yrotation
                                    JOINT RightFinger32
                                    {
                                        OFFSET  -2.323470   0.000000   0.000000
                                        CHANNELS 3 Zrotation Xrotation Yrotation
                                        End Site
                                        {
                                            OFFSET  -2.273050   0.000000   0.000000
                                        }
                                    }
                                }
                            }
                            JOINT RightFinger4
                            {
                                OFFSET  -7.435090   0.000000  -3.252850
                                CHANNELS 3 Zrotation Xrotation Yrotation
                                JOINT RightFinger41
                                {
                                    OFFSET  -3.717550   0.000000   0.000000
                                    CHANNELS 3 Zrotation Xrotation Yrotation
                                    JOINT RightFinger42
                                    {
                                        OFFSET  -1.858760   0.000000   0.000000
                                        CHANNELS 3 Zrotation Xrotation Yrotation
                                        End Site
                                        {
                                            OFFSET  -1.818440   0.000000   0.000000
                                        }
                                    }
                                }
                            }
                        }
                    }
                }
            }
        }
    }
    JOINT LeftHip
    {
        OFFSET   9.782990   0.000000   0.000000
        CHANNELS 3 Zrotation Xrotation Yrotation
        JOINT LeftKnee
        {
            OFFSET  -0.000063 -41.789100   0.001657
            CHANNELS 3 Zrotation Xrotation Yrotation
            JOINT LeftAnkle
            {
                OFFSET   0.000078 -41.133200  -0.000113
                CHANNELS 3 Zrotation Xrotation Yrotation
                JOINT LeftToe
                {
                    OFFSET   0.000000  -6.358970  14.674500
                    CHANNELS 3 Zrotation Xrotation Yrotation
                    End Site
                    {
                        OFFSET   0.000000   0.000000   3.913200
                    }
                }
            }
        }
    }
    JOINT RightHip
    {
        OFFSET  -9.782990   0.000000   0.000000
        CHANNELS 3 Zrotation Xrotation Yrotation
        JOINT RightKnee
        {
            OFFSET   0.000053 -41.789200   0.000277
            CHANNELS 3 Zrotation Xrotation Yrotation
            JOINT RightAnkle
            {
                OFFSET   0.000030 -41.133200  -0.000150
                CHANNELS 3 Zrotation Xrotation Yrotation
                JOINT RightToe
                {
                    OFFSET   0.000000  -6.358960  14.674500
                    CHANNELS 3 Zrotation Xrotation Yrotation
                    End Site
                    {
                        OFFSET   0.000000   0.000000   3.913200
                    }
                }
            }
        }
    }
}
MOTION
Frames: 4
Frame Time:   0.016667
 10.472600  90.050400   2.015320  13.178600 -19.208600  40.580300  -3.927560  13.510500  12.944100 -11.406500  25.693500  27.948900   2.146830  -2.516290   0.094089   3.546050  -5.080640 -39.674000 -10.694400 -13.300400  -0.058089 -65.162900  18.460800  -6.170170  -0.920040  -4.728570 -12.611700  12.269300  -2.289180   5.298040  40.909900  37.892100 -69.730600 -32.937200   0.000000   0.000031 -11.468600   0.001896   0.000000 -30.449300   4.878430  -8.230970 -25.199700   0.025166   0.001570 -17.639800   0.016621   0.004470 -28.149000  -2.227180   4.152840 -33.653000   0.010729   0.003606 -22.412900  -0.005590   0.001036 -27.703400  -2.194970   4.169920 -30.698700  -0.006148   0.003208 -20.445400  -0.004575   0.001144 -27.723200  -2.199250   4.167510 -41.709900  -0.003614   0.001736 -27.778800  -0.002550  -0.000557   3.462470 -10.218600  15.862800  21.036400  24.144700  90.563700 -18.834200   2.045360  19.194900   8.590530 -65.655100  16.055200 -55.386000  34.025500  60.132700   4.794810   0.005223  -0.000332  -2.602600   0.004928   0.007935  11.283800   2.919130  14.326300   9.537520   0.006841   0.004547   6.676250   0.001837  -0.002522  13.898100   2.748890  10.985300  14.164300   0.001707   0.002104   9.433440   0.001303   0.002344   6.045020   1.191370  11.112000   6.161560   0.002662   0.001981   4.103600   0.002051   0.004552   7.432010   1.354670  10.275800  11.328700  -0.003746   0.002545   7.544930   0.002093   0.000520  -0.724455  25.089900   4.854920  -0.358135   0.345931 -12.413500 -10.697200   1.065680 -23.544400   0.000000   0.000000  -0.000000  -2.511560  14.850600   1.297370   3.233670  36.701300 -32.272100   6.020040   2.540650 -17.834000  -0.000000   0.000000   0.000000
 10.466700  90.050800   2.014280  13.034000 -19.338200  40.229200  -3.910860  13.513300  12.886700 -11.356600  25.707200  27.826200   2.212900  -2.567780   0.098943   3.655950  -5.183180 -39.845900 -10.631000 -13.251300  -0.058298 -65.305200  18.241900  -5.865800  -1.003080  -4.640360 -12.753000  12.275600  -2.373840   5.224890  40.846500  37.732900 -69.495700 -32.885300   0.000000   0.000000 -11.442600   0.001744  -0.000000 -30.379900   4.869070  -8.237530 -25.145600   0.057406   0.001564 -17.601900   0.046787  -0.001205 -28.136800  -2.208370   4.121880 -33.551400   0.010726   0.003601 -22.345200  -0.005592   0.001035 -27.686500  -2.175880   4.139030 -30.600000  -0.006138   0.003207 -20.379600  -0.004579   0.001149 -27.665200  -2.174390   4.139150 -41.619700  -0.003621   0.001736 -27.718800  -0.002550  -0.000598   3.460010 -10.194000  15.774100  21.085400  24.211200  90.436500 -19.119500   2.149480  19.808500   9.046460 -65.840000  16.655900 -55.539500  34.118700  60.199200   4.836630   0.005158  -0.000301  -2.581690   0.004927   0.007933  11.301300   2.952240  14.458100   9.552970   0.006724   0.004510   6.687080   0.001868  -0.002703  13.994500   2.794320  11.073600  14.265400   0.001676   0.002359   9.500750   0.001302   0.002178   6.195120   1.234680  11.244600   6.316540   0.002512   0.001859   4.206820   0.002059   0.004433   7.542530   1.388750  10.384900  11.502900  -0.003795   0.002586   7.660950   0.002092   0.000488  -0.669260  25.170900   4.858990  -0.406518   0.316930 -12.343900 -10.670900   0.976551 -23.292300  -0.000000   0.000000   0.000000  -2.455750  14.873800   1.372310   3.102860  36.685600 -32.003100   6.186990   2.461290 -17.660300  -0.000000   0.000000   0.000000
 10.454500  90.051000   2.009490  12.858800 -19.439800  39.841600  -3.892120  13.507900  12.809600 -11.296900  25.708700  27.660700   2.272480  -2.609920   0.103248   3.754970  -5.266880 -39.978500 -10.560500 -13.202800  -0.044445 -65.441000  18.142800  -5.560500  -1.069110  -4.688920 -12.943900  12.191400  -2.171770   5.110010  41.124300  38.144100 -70.076500 -32.781600   0.000000   0.000037 -11.390800  -0.009145  -0.000000 -30.407100   4.966120  -8.394390 -25.178300   0.093786   0.001571 -17.624800   0.072052   0.007409 -28.157700  -2.115510   3.947920 -33.652000   0.010719   0.003603 -22.412100  -0.005589   0.001036 -27.710100  -2.084330   3.964380 -30.688000  -0.006132   0.003209 -20.438200  -0.004580   0.001140 -27.720700  -2.082120   3.964840 -41.690600  -0.003621   0.001740 -27.766000  -0.002550  -0.000639   3.487910 -10.174800  15.705200  21.217800  24.327100  90.201900 -19.428500   2.294540  20.568600   9.320290 -66.005500  17.002100 -55.640700  34.202700  60.384500   4.904210   0.005093  -0.000287  -2.547900   0.004931   0.007938  11.333300   2.980800  14.558800   9.581360   0.006605   0.004465   6.706970   0.001911  -0.002889  14.105100   2.819560  11.074700  14.378000   0.001640   0.002599   9.575770   0.001309   0.002017   6.348860   1.269790  11.297200   6.474210   0.002368   0.001742   4.311830   0.002060   0.004313   7.668010   1.414710  10.417400  11.695200  -0.003850   0.002628   7.789010   0.002092   0.000454  -0.627457  25.204400   4.814600  -0.439509   0.318867 -12.251900 -10.646600   0.868150 -22.998600   0.000000   0.000000   0.000000  -2.417100  14.851000   1.415560   2.955780  36.664000 -31.729200   6.383580   2.388400 -17.436900  -0.000000   0.000000   0.000000
 10.436900  90.052200   2.002240  12.663700 -19.553400  39.394600  -3.869130  13.489000  12.727200 -11.226200  25.690100  27.480500   2.327030  -2.644930   0.107146   3.845650  -5.336270 -40.071500 -10.486800 -13.153200  -0.019356 -65.569800  18.114500  -5.283120  -1.127170  -4.736960 -13.155600  12.074700  -1.894670   5.000090  41.526200  38.697600 -70.898400 -32.681700   0.000000   0.000083 -11.340900  -0.019885  -0.000000 -30.445700   5.098180  -8.595820 -25.224000   0.116416   0.001577 -17.656800   0.086218   0.019926 -28.182200  -2.011490   3.748600 -33.788400   0.010710   0.003605 -22.503000  -0.005586   0.001038 -27.738600  -1.982390   3.764040 -30.808200  -0.006126   0.003211 -20.518300  -0.004580   0.001131 -27.792700  -1.985660   3.762150 -41.787600  -0.003619   0.001744 -27.830600  -0.002550  -0.000679   3.553590 -10.166100  15.653400  21.422100  24.503600  89.828000 -19.788600   2.445270  21.484200   9.567230 -66.085300  17.296500 -55.630400  34.311500  60.781700   4.949910   0.005028  -0.000284  -2.525040   0.004934   0.007943  11.450400   3.033790  14.659900   9.687690   0.006485   0.004418   6.781400   0.001953  -0.003077  14.318800   2.860650  11.075900  14.595900   0.001600   0.002820   9.720890   0.001319   0.001859   6.626020   1.329240  11.329800   6.757490   0.002228   0.001624   4.500500   0.002061   0.004187   7.903330   1.461210  10.439600  12.054900  -0.003896   0.002667   8.028530   0.002093   0.000420  -0.590556  25.211300   4.769150  -0.455099   0.320821 -12.147300 -10.622500   0.758421 -22.668300  -0.000000   0.000000  -0.000000  -2.380980  14.791500   1.453130   2.795320  36.626200 -31.430100   6.577890   2.305000 -17.176800  -0.000000   0.000000  -0.000000
